<svg width="182" height="163" viewBox="0 0 182 163" fill="none" xmlns="http://www.w3.org/2000/svg">
<path fill-rule="evenodd" clip-rule="evenodd" d="M134.982 102.412L135.609 104.039C137.55 109.082 139.453 113.562 141.307 117.529C148.443 113.941 154.446 112.557 159.415 112.856C165.236 113.207 169.471 115.86 172.178 119.588C174.835 123.246 175.962 127.842 175.923 132.165C175.884 136.482 174.68 140.75 172.397 143.77C170.082 146.832 166.497 148.751 161.961 147.691C157.635 146.68 152.962 143.055 148.071 136.371C145.415 132.742 142.638 128.134 139.768 122.385C131.538 127.122 121.563 134.903 109.644 146.829L108.446 148.027L105.719 145.627L106.916 144.429C119.089 132.249 129.383 124.217 138.008 119.301C138.077 119.261 138.146 119.222 138.215 119.183C136.248 115.007 134.241 110.296 132.201 104.998L131.575 103.372L134.982 102.412ZM142.839 120.716C145.708 126.507 148.45 131.066 151.025 134.585C155.734 141.021 159.694 143.719 162.621 144.403C165.338 145.038 167.625 144.024 169.387 141.694C171.18 139.322 172.259 135.738 172.293 131.914C172.327 128.095 171.319 124.259 169.216 121.364C167.165 118.539 164.018 116.518 159.419 116.241C155.26 115.991 149.793 117.165 142.839 120.716Z" fill="black"/>
<path d="M135.054 93.9687C135.054 117.677 114.069 136.897 88.1817 136.897C62.2949 136.897 41.3094 117.677 41.3094 93.9687C41.3094 70.2601 62.2949 51.0404 88.1817 51.0404C114.069 51.0404 135.054 70.2601 135.054 93.9687Z" fill="black"/>
<path fill-rule="evenodd" clip-rule="evenodd" d="M89.4612 0L91.1103 0.8241C101.342 5.93692 107.27 12.3251 110.231 19.1608C113.179 25.9653 113.084 32.9732 111.733 39.1844C110.383 45.3901 107.758 50.9081 105.496 54.8496C104.361 56.8272 103.308 58.4251 102.534 59.534C102.147 60.0888 101.829 60.5223 101.605 60.8208C101.493 60.9701 101.404 61.0857 101.342 61.166C101.327 61.1853 101.314 61.2026 101.302 61.2179C101.289 61.2342 101.278 61.2482 101.269 61.2597L101.248 61.2863L101.242 61.2945L101.239 61.2972C101.239 61.2983 101.238 61.2992 99.4313 59.9838L101.238 61.2992L100.469 62.2621L99.2069 62.1425C85.5032 60.8437 76.7124 57.4647 71.7634 52.442C66.687 47.2901 66.0545 40.8449 67.5834 34.4928C69.098 28.2002 72.7776 21.728 76.7566 15.9963C80.6174 10.4348 84.8746 5.41193 87.9683 1.76188C88.0772 1.63344 88.1846 1.5067 88.2905 1.38169L89.4612 0ZM98.3525 57.6935C98.4735 57.5254 98.6073 57.3369 98.7525 57.1288C99.4656 56.1066 100.449 54.6162 101.511 52.7649C103.643 49.0487 106.056 43.9464 107.284 38.3021C108.511 32.6633 108.533 26.5915 106.033 20.8193C103.692 15.4174 99.0502 10.0647 90.6333 5.51505C87.6536 9.03859 83.9342 13.5097 80.544 18.3932C76.6677 23.9771 73.3434 29.9321 72.0118 35.4645C70.6945 40.9372 71.3735 45.7148 75.0729 49.4692C78.7728 53.2242 85.8593 56.3506 98.3525 57.6935Z" fill="black"/>
<path fill-rule="evenodd" clip-rule="evenodd" d="M47.2669 28.8533C47.1861 28.6927 46.9901 28.3697 46.5936 28.1307C46.2981 27.9525 45.9073 27.8331 45.4676 27.8704C45.0521 27.9056 44.742 28.0679 44.5517 28.2019C44.2165 28.4378 44.056 28.7228 44.0124 28.8005C43.9457 28.9198 43.9031 29.0267 43.8785 29.0935C43.8282 29.2302 43.7932 29.3659 43.7687 29.4713C43.7177 29.6916 43.6718 29.9616 43.6304 30.2571C43.464 31.4436 43.3002 33.5433 43.2704 36.1883C43.2109 41.475 43.6839 49.1501 45.861 56.3042C48.0252 63.416 51.9854 70.3634 59.1736 73.6378C66.4164 76.937 76.3195 76.2367 89.6773 69.4097L90.3912 69.0449L90.5768 68.2924C92.5749 60.1909 90.6958 53.5401 86.7177 48.2088C82.7882 42.9427 76.8752 39.0419 70.8836 36.1839C64.874 33.3172 58.6511 31.4364 53.9511 30.2729C51.5962 29.6899 49.6119 29.2841 48.2123 29.0235C47.8589 28.9577 47.5427 28.9011 47.2669 28.8533ZM47.0221 32.2932C47.1795 32.3215 47.3474 32.3521 47.5256 32.3853C48.8651 32.6347 50.7771 33.0255 53.0508 33.5884C57.6081 34.7166 63.572 36.5249 69.2804 39.2479C75.0068 41.9795 80.3432 45.5688 83.7961 50.1963C87.0796 54.5966 88.7183 60.0054 87.2589 66.7563C74.7698 72.9844 66.3737 73.1226 60.7182 70.5464C54.8994 67.8958 51.36 62.0988 49.3057 55.3485C47.2643 48.6403 46.7999 41.3351 46.8575 36.2252C46.8751 34.6636 46.9411 33.3267 47.0221 32.2932Z" fill="black"/>
<path fill-rule="evenodd" clip-rule="evenodd" d="M16.6702 82.8081C26.2965 78.6262 40.6789 78.5898 61.3153 87.7219L63.1714 88.5433L61.9621 90.1176C53.1012 101.654 45.022 107.67 37.7313 110.213C30.3796 112.776 24.0349 111.738 18.8627 109.592C14.8232 107.917 11.4134 105.515 8.87331 103.725C8.22344 103.267 7.6305 102.85 7.0985 102.494C6.42655 102.046 5.8785 101.712 5.42787 101.492C5.18847 101.375 5.01467 101.31 4.89597 101.273C4.89393 101.278 4.89188 101.283 4.8898 101.289C4.83295 101.431 4.77092 101.639 4.71576 101.934L1.41976 101.37C2.58846 95.1261 7.05464 86.9855 16.6702 82.8081ZM5.808 98.1974C7.64932 93.5602 11.4762 88.5773 18.0582 85.7179C26.1958 82.1827 38.9242 81.7307 58.0247 89.8069C49.8894 100.002 42.7121 105.072 36.5812 107.21C30.2024 109.434 24.7594 108.554 20.1956 106.661C16.5449 105.146 13.5431 103.036 11.0144 101.257C10.3133 100.764 9.64853 100.297 9.01641 99.875C8.3075 99.4016 7.60973 98.9676 6.95129 98.6461C6.60241 98.4758 6.21664 98.3125 5.808 98.1974Z" fill="black"/>
<path d="M68.537 135.546C66.677 134.554 65.499 133.531 65.003 132.477C64.507 131.423 64.259 130.524 64.259 129.78C64.259 128.106 64.848 125.874 66.026 123.084C67.266 120.232 68.909 116.977 70.955 113.319C73.001 109.661 75.326 105.848 77.93 101.88C76.008 101.756 74.179 101.663 72.443 101.601C70.707 101.539 68.475 101.508 65.747 101.508H64.259C65.127 99.2758 66.491 97.7258 68.351 96.8578C70.273 95.9278 72.505 95.4628 75.047 95.4628C76.101 95.4628 77.186 95.5248 78.302 95.6488C79.48 95.7728 80.689 95.8968 81.929 96.0208C85.029 91.5568 88.067 87.3408 91.043 83.3728C94.081 79.4048 96.933 75.8398 99.599 72.6778C102.327 69.4538 104.745 66.8188 106.853 64.7728C109.829 61.7968 111.999 60.3088 113.363 60.3088C114.231 60.3088 115.192 60.6498 116.246 61.3318C117.362 62.0138 118.509 62.8818 119.687 63.9358C119.067 64.4318 118.261 65.7028 117.269 67.7488C116.339 69.7948 115.316 72.3988 114.2 75.5608C113.146 78.6608 112.061 82.0708 110.945 85.7908C109.891 89.5108 108.93 93.2928 108.062 97.1368C107.194 100.981 106.481 104.67 105.923 108.204C105.427 111.676 105.179 114.745 105.179 117.411C105.179 119.891 105.427 121.751 105.923 122.991C106.419 124.169 107.256 124.758 108.434 124.758C109.86 124.758 111.627 123.673 113.735 121.503C115.843 119.333 118.199 115.799 120.803 110.901L122.477 112.668C120.555 117.752 118.044 121.937 114.944 125.223C111.906 128.509 108.651 130.152 105.179 130.152C102.203 130.152 100.095 128.881 98.855 126.339C97.615 123.735 96.995 120.201 96.995 115.737C96.995 114.311 97.088 112.699 97.274 110.901C97.46 109.103 97.77 106.871 98.204 104.205C95.476 103.771 93.058 103.43 90.95 103.182C88.842 102.934 86.827 102.686 84.905 102.438C81.929 107.708 79.046 113.164 76.256 118.806C73.466 124.448 70.893 130.028 68.537 135.546ZM99.134 99.6478C99.94 95.9898 100.87 92.3008 101.924 88.5808C103.04 84.7988 104.187 81.2028 105.365 77.7928C106.605 74.3208 107.814 71.2208 108.992 68.4928C107.132 69.9808 105.055 72.1198 102.761 74.9098C100.467 77.6998 98.049 80.9858 95.507 84.7678C93.027 88.5498 90.485 92.6728 87.881 97.1368C89.741 97.5088 91.601 97.9118 93.461 98.3458C95.321 98.7798 97.212 99.2138 99.134 99.6478Z" fill="white"/>
</svg>
