<svg width="506" height="374" viewBox="0 0 506 374" fill="none" xmlns="http://www.w3.org/2000/svg">
<path d="M13.7237 319.596C16.0082 323.378 20.8946 324.54 24.6377 322.193C28.3809 319.846 29.5633 314.877 27.2787 311.095C24.9942 307.313 20.1078 306.15 16.3647 308.498C12.6216 310.845 11.4392 315.814 13.7237 319.596ZM238.309 178.753C240.594 182.535 245.48 183.698 249.223 181.35C252.967 179.003 254.149 174.034 251.864 170.252C249.58 166.471 244.693 165.308 240.95 167.655C237.207 170.003 236.025 174.971 238.309 178.753ZM19.8371 316.703C47.9499 330.711 69.2971 338.3 85.536 340.876C101.784 343.453 113.121 341.038 120.957 334.768C128.762 328.523 132.778 318.701 134.948 307.192C137.12 295.675 137.491 282.192 137.79 268.377C138.089 254.508 138.316 240.278 140.152 227.063C141.989 213.848 145.418 201.805 152.023 192.274C165.084 173.427 191.149 163.676 244.748 175.977L245.426 173.029C191.464 160.645 163.735 170.138 149.592 190.548C142.595 200.645 139.071 213.233 137.204 226.663C135.337 240.093 135.111 254.52 134.813 268.333C134.513 282.2 134.14 295.422 132.024 306.645C129.906 317.875 126.091 326.827 119.125 332.4C112.191 337.948 101.817 340.395 86.0173 337.889C70.2085 335.382 49.1711 327.943 21.1654 313.988L19.8371 316.703Z" fill="white"/>
<path d="M238.257 179.03C240.542 182.812 245.428 183.975 249.171 181.628C252.915 179.28 254.097 174.312 251.812 170.53C249.528 166.748 244.641 165.585 240.898 167.933C237.155 170.28 235.973 175.249 238.257 179.03ZM462.843 38.1878C465.128 41.9696 470.014 43.1324 473.757 40.785C477.5 38.4376 478.683 33.4689 476.398 29.6871C474.114 25.9053 469.227 24.7425 465.484 27.0899C461.741 29.4373 460.559 34.406 462.843 38.1878ZM244.371 176.138C272.484 190.146 293.831 197.735 310.07 200.31C326.318 202.887 337.655 200.473 345.491 194.203C353.296 187.958 357.311 178.136 359.482 166.626C361.653 155.11 362.025 141.626 362.323 127.812C362.623 113.943 362.849 99.7125 364.686 86.4976C366.523 73.283 369.952 61.2399 376.557 51.7086C389.617 32.8613 415.683 23.1106 469.282 35.4115L469.959 32.4634C415.998 20.0793 388.269 29.5731 374.126 49.9823C367.129 60.0793 363.604 72.6675 361.738 86.0975C359.871 99.5273 359.645 113.955 359.346 127.768C359.047 141.635 358.673 154.857 356.557 166.08C354.44 177.31 350.625 186.261 343.659 191.835C336.725 197.383 326.351 199.83 310.551 197.324C294.742 194.817 273.705 187.378 245.699 173.423L244.371 176.138Z" fill="white"/>
<ellipse cx="138.456" cy="232.216" rx="6.55326" ry="7.49084" fill="white"/>
</svg>
